<!-- Generated by IcoMoon.io -->
<svg version="1.1" xmlns="http://www.w3.org/2000/svg" width="279" height="1024" viewBox="0 0 279 1024">
<title></title>
<g id="icomoon-ignore">
</g>
<path d="M279.278 139.639c0 77.12-62.518 139.639-139.639 139.639s-139.639-62.518-139.639-139.639c0-77.12 62.518-139.639 139.639-139.639s139.639 62.518 139.639 139.639z"></path>
<path d="M279.278 512.028c0 77.12-62.518 139.639-139.639 139.639s-139.639-62.518-139.639-139.639c0-77.12 62.518-139.639 139.639-139.639s139.639 62.518 139.639 139.639z"></path>
<path d="M279.278 884.361c0 77.12-62.518 139.639-139.639 139.639s-139.639-62.518-139.639-139.639c0-77.12 62.518-139.639 139.639-139.639s139.639 62.518 139.639 139.639z"></path>
</svg>
